<?xml version="1.0" encoding="UTF-8"?>
<svg width="700pt" height="700pt" version="1.1" viewBox="0 0 700 700" xmlns="http://www.w3.org/2000/svg">
 <g>
  <path d="m175 122.5c0 4.6406 1.8438 9.0938 5.125 12.375s7.7344 5.125 12.375 5.125h315c6.2539 0 12.031-3.3359 15.156-8.75s3.125-12.086 0-17.5-8.9023-8.75-15.156-8.75h-52.5v-17.5c0-13.926-5.5312-27.277-15.375-37.125-9.8477-9.8438-23.199-15.375-37.125-15.375h-105c-13.926 0-27.277 5.5312-37.125 15.375-9.8438 9.8477-15.375 23.199-15.375 37.125v17.5h-52.5c-4.6406 0-9.0938 1.8438-12.375 5.125s-5.125 7.7344-5.125 12.375zm105-35c0-4.6406 1.8438-9.0938 5.125-12.375s7.7344-5.125 12.375-5.125h105c4.6406 0 9.0938 1.8438 12.375 5.125s5.125 7.7344 5.125 12.375v17.5h-140z"/>
  <path d="m490 157.5h-280c-9.2812 0-18.184 3.6875-24.75 10.25-6.5625 6.5664-10.25 15.469-10.25 24.75v280c0 13.926 5.5312 27.277 15.375 37.125 9.8477 9.8438 23.199 15.375 37.125 15.375h245c13.926 0 27.277-5.5312 37.125-15.375 9.8438-9.8477 15.375-23.199 15.375-37.125v-280c0-9.2812-3.6875-18.184-10.25-24.75-6.5664-6.5625-15.469-10.25-24.75-10.25zm0 315c0 4.6406-1.8438 9.0938-5.125 12.375s-7.7344 5.125-12.375 5.125h-245c-4.6406 0-9.0938-1.8438-12.375-5.125s-5.125-7.7344-5.125-12.375v-280h280z"/>
  <path d="m295.31 455c4.6406 0 9.0938-1.8438 12.375-5.125s5.125-7.7344 5.125-12.375v-192.5c0-6.2539-3.3359-12.031-8.75-15.156s-12.086-3.125-17.5 0-8.75 8.9023-8.75 15.156v192.5c0 4.6406 1.8438 9.0938 5.125 12.375s7.7344 5.125 12.375 5.125z"/>
  <path d="m404.69 455c4.6406 0 9.0938-1.8438 12.375-5.125s5.125-7.7344 5.125-12.375v-192.5c0-6.2539-3.3359-12.031-8.75-15.156s-12.086-3.125-17.5 0-8.75 8.9023-8.75 15.156v192.5c0 4.6406 1.8438 9.0938 5.125 12.375s7.7344 5.125 12.375 5.125z"/>
 </g>
</svg>
