<?xml version="1.0" encoding="UTF-8"?>
<svg width="700pt" height="700pt" version="1.1" viewBox="0 0 700 700" xmlns="http://www.w3.org/2000/svg">
 <g fill-rule="evenodd">
  <path d="m480.67 336.42v-280.42h-280v448h210.13c5.8477 7.082 12.629 13.367 20.156 18.668h-295.62c-5.1523 0-9.332-4.1797-9.332-9.3359v-466.66c0-5.1562 4.1797-9.3359 9.332-9.3359h354.67c5.1562 0 9.332 4.1797 9.332 9.3359v289.75c-3.0742-0.27734-6.1875-0.41797-9.332-0.41797s-6.2578 0.14062-9.332 0.41797zm-298.67-280.42h-37.332v448h37.332z"/>
  <path d="m490 522.67c46.391 0 84-37.609 84-84 0-46.395-37.609-84-84-84s-84 37.605-84 84c0 46.391 37.609 84 84 84zm0-18.668c36.082 0 65.332-29.25 65.332-65.332s-29.25-65.336-65.332-65.336-65.332 29.254-65.332 65.336 29.25 65.332 65.332 65.332zm-13.199-35.07c3.6445 3.6484 9.5547 3.6484 13.199 0l39.598-39.598c3.6445-3.6445 3.6445-9.5547 0-13.199-3.6445-3.6445-9.5547-3.6445-13.199 0l-33 33-19.797-19.801c-3.6445-3.6445-9.5547-3.6445-13.199 0-3.6445 3.6445-3.6445 9.5547 0 13.199z"/>
 </g>
</svg>
